# xmcd
# 
# Track frame offsets:
#     150
#     13003
#     27088
#     39630
#     51153
#     62570
#     72393
#     84415
#     94715
#     106370
#     118240
#     131388
#     143775
#     156928
#     168718
#     185123
#     199935
#     214415
# 
# Disc length: 3086
# 
# Revision: 2
# Processed by: cddbd v1.5.2PL0 Copyright (c) Steve Scherf et al.
# Submitted via: BonkEnc v1.0
# 
DISCID=0b0c0c12
DTITLE=Various Artist - Women of Country
DYEAR=1994
DGENRE=Country
TTITLE0=The Carter Family - Keep on the Sunny Side
TTITLE1=Patsy Montana - I Want To Be a Cowboy's Sweetheart
TTITLE2=Cindy Walker - When My Blue Moon Turns to Gold Again
TTITLE3=Kitty Wells - It Wasn't God Who Made Honky Tonk Angels
TTITLE4=Patsy Cline - Lonely Street
TTITLE5=Wanda Jackson - Let's Have a Party
TTITLE6=Brenda Lee - I'm Sorry
TTITLE7=Loretta Lynn - Honky Tonk Girl
TTITLE8=Dottie West - Here Comes My Baby Back Again
TTITLE9=Tammy Wynette - 'Til I Get It Right
TTITLE10=Lynn Anderson - Rose Garden
TTITLE11=Barbara Mandrell - The Midnight Oil
TTITLE12=Dolly Parton - I Will Always Love You
TTITLE13=Emmylou Harris - If I Could Win Your Love
TTITLE14=Anne Murray - You Needed Me
TTITLE15=Rosanne Cash - Seven Year Ache
TTITLE16=Pam Tillis - Don't Tell Me What To Do
TTITLE17=Mary Chapin Carpenter - This Shirt
EXTD=
EXTT0=
EXTT1=
EXTT2=
EXTT3=
EXTT4=
EXTT5=
EXTT6=
EXTT7=
EXTT8=
EXTT9=
EXTT10=
EXTT11=
EXTT12=
EXTT13=
EXTT14=
EXTT15=
EXTT16=
EXTT17=
PLAYORDER=
